<svg width="32" height="32" viewBox="0 0 32 32" fill="none" xmlns="http://www.w3.org/2000/svg">
<path d="M22 4.79196C22 5.8622 21.6138 6.75714 20.8413 7.47679C20.0688 8.19643 19.0043 8.55625 17.6478 8.55625C16.3101 8.55625 15.2551 8.19643 14.4826 7.47679C13.7101 6.73869 13.3239 5.83452 13.3239 4.76429C13.3239 3.7125 13.7007 2.82679 14.4543 2.10714C15.2268 1.36905 16.2913 1 17.6478 1C19.0043 1 20.0688 1.35982 20.8413 2.07946C21.6138 2.79911 22 3.70327 22 4.79196ZM13.0413 17.7179H20.4174L12.25 30.6991C11.7225 31.5664 11.2043 32 10.6957 32C10.2246 32 9.81957 31.8616 9.48043 31.5848C9.16014 31.308 9 31.0128 9 30.6991C9 30.4592 9.06594 30.1363 9.19783 29.7304L13.0413 17.7179Z" fill="#55FF00"/>
</svg>
